<?xml version="1.0" encoding="UTF-8"?>
<svg xmlns="http://www.w3.org/2000/svg" xmlns:xlink="http://www.w3.org/1999/xlink" width="290.092pt" height="290.092pt" viewBox="0 0 290.092 290.092" version="1.1">
<g id="surface1">
<path style="fill:none;stroke-width:0.09962;stroke-linecap:butt;stroke-linejoin:miter;stroke:rgb(0%,0%,0%);stroke-opacity:1;stroke-miterlimit:10;" d="M 144.000875 -0.000875 C 144.000875 79.530375 79.532125 144.003031 0.000875 144.003031 C -79.530375 144.003031 -144.003031 79.530375 -144.003031 -0.000875 C -144.003031 -79.532125 -79.530375 -144.000875 0.000875 -144.000875 C 79.532125 -144.000875 144.000875 -79.532125 144.000875 -0.000875 Z M 144.000875 -0.000875 " transform="matrix(1,0,0,-1,145.046,145.046)"/>
<path style="fill:none;stroke-width:0.09962;stroke-linecap:butt;stroke-linejoin:miter;stroke:rgb(0%,0%,0%);stroke-opacity:1;stroke-miterlimit:10;" d="M 45.98525 24.092875 C 45.98525 26.444437 44.082906 28.346781 41.73525 28.346781 C 39.383688 28.346781 37.481344 26.444437 37.481344 24.092875 C 37.481344 21.745219 39.383688 19.842875 41.73525 19.842875 C 44.082906 19.842875 45.98525 21.745219 45.98525 24.092875 Z M 45.98525 24.092875 " transform="matrix(1,0,0,-1,145.046,145.046)"/>
<path style="fill:none;stroke-width:0.09962;stroke-linecap:butt;stroke-linejoin:miter;stroke:rgb(0%,0%,0%);stroke-opacity:1;stroke-miterlimit:10;" d="M 4.250875 48.190531 C 4.250875 50.538187 2.348531 52.440531 0.000875 52.440531 C -2.346781 52.440531 -4.253031 50.538187 -4.253031 48.190531 C -4.253031 45.842875 -2.346781 43.936625 0.000875 43.936625 C 2.348531 43.936625 4.250875 45.842875 4.250875 48.190531 Z M 4.250875 48.190531 " transform="matrix(1,0,0,-1,145.046,145.046)"/>
<path style="fill:none;stroke-width:0.09962;stroke-linecap:butt;stroke-linejoin:miter;stroke:rgb(0%,0%,0%);stroke-opacity:1;stroke-miterlimit:10;" d="M -37.479594 24.092875 C -37.479594 26.444437 -39.385844 28.346781 -41.7335 28.346781 C -44.081156 28.346781 -45.987406 26.444437 -45.987406 24.092875 C -45.987406 21.745219 -44.081156 19.842875 -41.7335 19.842875 C -39.385844 19.842875 -37.479594 21.745219 -37.479594 24.092875 Z M -37.479594 24.092875 " transform="matrix(1,0,0,-1,145.046,145.046)"/>
<path style="fill:none;stroke-width:0.09962;stroke-linecap:butt;stroke-linejoin:miter;stroke:rgb(0%,0%,0%);stroke-opacity:1;stroke-miterlimit:10;" d="M -37.479594 -24.094625 C -37.479594 -21.746969 -39.385844 -19.844625 -41.7335 -19.844625 C -44.081156 -19.844625 -45.987406 -21.746969 -45.987406 -24.094625 C -45.987406 -26.442281 -44.081156 -28.348531 -41.7335 -28.348531 C -39.385844 -28.348531 -37.479594 -26.442281 -37.479594 -24.094625 Z M -37.479594 -24.094625 " transform="matrix(1,0,0,-1,145.046,145.046)"/>
<path style="fill:none;stroke-width:0.09962;stroke-linecap:butt;stroke-linejoin:miter;stroke:rgb(0%,0%,0%);stroke-opacity:1;stroke-miterlimit:10;" d="M 4.250875 -48.188375 C 4.250875 -45.840719 2.348531 -43.938375 0.000875 -43.938375 C -2.346781 -43.938375 -4.253031 -45.840719 -4.253031 -48.188375 C -4.253031 -50.536031 -2.346781 -52.442281 0.000875 -52.442281 C 2.348531 -52.442281 4.250875 -50.536031 4.250875 -48.188375 Z M 4.250875 -48.188375 " transform="matrix(1,0,0,-1,145.046,145.046)"/>
<path style="fill:none;stroke-width:0.09962;stroke-linecap:butt;stroke-linejoin:miter;stroke:rgb(0%,0%,0%);stroke-opacity:1;stroke-miterlimit:10;" d="M 45.98525 -24.094625 C 45.98525 -21.746969 44.082906 -19.844625 41.73525 -19.844625 C 39.383688 -19.844625 37.481344 -21.746969 37.481344 -24.094625 C 37.481344 -26.442281 39.383688 -28.348531 41.73525 -28.348531 C 44.082906 -28.348531 45.98525 -26.442281 45.98525 -24.094625 Z M 45.98525 -24.094625 " transform="matrix(1,0,0,-1,145.046,145.046)"/>
</g>
</svg>
