<?xml version="1.0" encoding="UTF-8"?>
<svg xmlns="http://www.w3.org/2000/svg" xmlns:xlink="http://www.w3.org/1999/xlink" width="290.092pt" height="290.092pt" viewBox="0 0 290.092 290.092" version="1.1">
<g id="surface1">
<path style="fill:none;stroke-width:0.09962;stroke-linecap:butt;stroke-linejoin:miter;stroke:rgb(0%,0%,0%);stroke-opacity:1;stroke-miterlimit:10;" d="M 144.000875 -0.000875 C 144.000875 79.530375 79.532125 144.003031 0.000875 144.003031 C -79.530375 144.003031 -144.003031 79.530375 -144.003031 -0.000875 C -144.003031 -79.532125 -79.530375 -144.000875 0.000875 -144.000875 C 79.532125 -144.000875 144.000875 -79.532125 144.000875 -0.000875 Z M 144.000875 -0.000875 " transform="matrix(1,0,0,-1,145.046,145.046)"/>
<path style="fill:none;stroke-width:0.09962;stroke-linecap:butt;stroke-linejoin:miter;stroke:rgb(0%,0%,0%);stroke-opacity:1;stroke-miterlimit:10;" d="M 24.606344 19.600687 C 24.606344 22.366312 22.364156 24.604594 19.602438 24.604594 C 16.836813 24.604594 14.598531 22.366312 14.598531 19.600687 C 14.598531 16.838969 16.836813 14.596781 19.602438 14.596781 C 22.364156 14.596781 24.606344 16.838969 24.606344 19.600687 Z M 24.606344 19.600687 " transform="matrix(1,0,0,-1,145.046,145.046)"/>
<path style="fill:none;stroke-width:0.09962;stroke-linecap:butt;stroke-linejoin:miter;stroke:rgb(0%,0%,0%);stroke-opacity:1;stroke-miterlimit:10;" d="M -14.596781 19.600687 C -14.596781 22.366312 -16.838969 24.604594 -19.600687 24.604594 C -22.366312 24.604594 -24.604594 22.366312 -24.604594 19.600687 C -24.604594 16.838969 -22.366312 14.596781 -19.600687 14.596781 C -16.838969 14.596781 -14.596781 16.838969 -14.596781 19.600687 Z M -14.596781 19.600687 " transform="matrix(1,0,0,-1,145.046,145.046)"/>
<path style="fill:none;stroke-width:0.09962;stroke-linecap:butt;stroke-linejoin:miter;stroke:rgb(0%,0%,0%);stroke-opacity:1;stroke-miterlimit:10;" d="M -14.596781 -19.602438 C -14.596781 -16.836813 -16.838969 -14.598531 -19.600687 -14.598531 C -22.366312 -14.598531 -24.604594 -16.836813 -24.604594 -19.602438 C -24.604594 -22.364156 -22.366312 -24.606344 -19.600687 -24.606344 C -16.838969 -24.606344 -14.596781 -22.364156 -14.596781 -19.602438 Z M -14.596781 -19.602438 " transform="matrix(1,0,0,-1,145.046,145.046)"/>
<path style="fill:none;stroke-width:0.09962;stroke-linecap:butt;stroke-linejoin:miter;stroke:rgb(0%,0%,0%);stroke-opacity:1;stroke-miterlimit:10;" d="M 24.606344 -19.602438 C 24.606344 -16.836813 22.364156 -14.598531 19.602438 -14.598531 C 16.836813 -14.598531 14.598531 -16.836813 14.598531 -19.602438 C 14.598531 -22.364156 16.836813 -24.606344 19.602438 -24.606344 C 22.364156 -24.606344 24.606344 -22.364156 24.606344 -19.602438 Z M 24.606344 -19.602438 " transform="matrix(1,0,0,-1,145.046,145.046)"/>
<path style="fill:none;stroke-width:0.09962;stroke-linecap:butt;stroke-linejoin:miter;stroke:rgb(0%,0%,0%);stroke-opacity:1;stroke-miterlimit:10;" d="M 50.911031 50.913187 C 44.227438 57.596781 36.282125 62.901469 27.551656 66.518656 L 38.571188 93.124125 C 50.79775 88.061625 61.918844 80.631937 71.278219 71.276469 Z M 50.911031 50.913187 " transform="matrix(1,0,0,-1,145.046,145.046)"/>
<path style="fill:none;stroke-width:0.09962;stroke-linecap:butt;stroke-linejoin:miter;stroke:rgb(0%,0%,0%);stroke-opacity:1;stroke-miterlimit:10;" d="M 0.000875 71.999125 C -9.45225 71.999125 -18.819437 70.135844 -27.549906 66.518656 L -38.573344 93.124125 C -26.346781 98.186625 -13.2335 100.799906 0.000875 100.799906 Z M 0.000875 71.999125 " transform="matrix(1,0,0,-1,145.046,145.046)"/>
<path style="fill:none;stroke-width:0.09962;stroke-linecap:butt;stroke-linejoin:miter;stroke:rgb(0%,0%,0%);stroke-opacity:1;stroke-miterlimit:10;" d="M -50.913187 50.913187 C -57.596781 44.229594 -62.901469 36.284281 -66.518656 27.549906 L -93.124125 38.573344 C -88.061625 50.796 -80.631937 61.921 -71.276469 71.276469 Z M -50.913187 50.913187 " transform="matrix(1,0,0,-1,145.046,145.046)"/>
<path style="fill:none;stroke-width:0.09962;stroke-linecap:butt;stroke-linejoin:miter;stroke:rgb(0%,0%,0%);stroke-opacity:1;stroke-miterlimit:10;" d="M -71.999125 -0.000875 C -71.999125 -9.450094 -70.135844 -18.821188 -66.518656 -27.551656 L -93.124125 -38.571188 C -98.186625 -26.348531 -100.799906 -13.231344 -100.799906 -0.000875 Z M -71.999125 -0.000875 " transform="matrix(1,0,0,-1,145.046,145.046)"/>
<path style="fill:none;stroke-width:0.09962;stroke-linecap:butt;stroke-linejoin:miter;stroke:rgb(0%,0%,0%);stroke-opacity:1;stroke-miterlimit:10;" d="M -50.913187 -50.911031 C -44.229594 -57.594625 -36.284281 -62.899313 -27.549906 -66.5165 L -38.573344 -93.125875 C -50.796 -88.059469 -61.921 -80.633688 -71.276469 -71.278219 Z M -50.913187 -50.911031 " transform="matrix(1,0,0,-1,145.046,145.046)"/>
<path style="fill:none;stroke-width:0.09962;stroke-linecap:butt;stroke-linejoin:miter;stroke:rgb(0%,0%,0%);stroke-opacity:1;stroke-miterlimit:10;" d="M 0.000875 -72.000875 C 9.450094 -72.000875 18.821188 -70.133688 27.551656 -66.5165 L 38.571188 -93.125875 C 26.348531 -98.188375 13.231344 -100.801656 0.000875 -100.801656 Z M 0.000875 -72.000875 " transform="matrix(1,0,0,-1,145.046,145.046)"/>
<path style="fill:none;stroke-width:0.09962;stroke-linecap:butt;stroke-linejoin:miter;stroke:rgb(0%,0%,0%);stroke-opacity:1;stroke-miterlimit:10;" d="M 50.911031 -50.911031 C 57.594625 -44.227438 62.899313 -36.282125 66.5165 -27.551656 L 93.125875 -38.571188 C 88.059469 -50.79775 80.633688 -61.918844 71.278219 -71.278219 Z M 50.911031 -50.911031 " transform="matrix(1,0,0,-1,145.046,145.046)"/>
<path style="fill:none;stroke-width:0.09962;stroke-linecap:butt;stroke-linejoin:miter;stroke:rgb(0%,0%,0%);stroke-opacity:1;stroke-miterlimit:10;" d="M 72.000875 -0.000875 C 72.000875 9.45225 70.133688 18.819437 66.5165 27.549906 L 93.125875 38.573344 C 98.188375 26.346781 100.801656 13.2335 100.801656 -0.000875 Z M 72.000875 -0.000875 " transform="matrix(1,0,0,-1,145.046,145.046)"/>
<path style="fill:none;stroke-width:0.09962;stroke-linecap:butt;stroke-linejoin:miter;stroke:rgb(0%,0%,0%);stroke-opacity:1;stroke-miterlimit:10;" d="M 95.243063 50.909281 C 91.911031 57.143656 87.965719 63.046 83.481344 68.510844 L 105.743063 86.780375 C 111.42275 79.8585 116.42275 72.381937 120.6415 64.4835 Z M 95.243063 50.909281 " transform="matrix(1,0,0,-1,145.046,145.046)"/>
<path style="fill:none;stroke-width:0.09962;stroke-linecap:butt;stroke-linejoin:miter;stroke:rgb(0%,0%,0%);stroke-opacity:1;stroke-miterlimit:10;" d="M 68.512594 83.479594 C 63.04775 87.963969 57.1415 91.913187 50.911031 95.245219 L 64.48525 120.643656 C 72.379781 116.421 79.86025 111.421 86.782125 105.741312 Z M 68.512594 83.479594 " transform="matrix(1,0,0,-1,145.046,145.046)"/>
<path style="fill:none;stroke-width:0.09962;stroke-linecap:butt;stroke-linejoin:miter;stroke:rgb(0%,0%,0%);stroke-opacity:1;stroke-miterlimit:10;" d="M 31.348531 103.346781 C 24.586813 105.397562 17.618063 106.784281 10.586813 107.475687 L 13.407125 136.135844 C 22.317281 135.256937 31.1415 133.506937 39.707906 130.905375 Z M 31.348531 103.346781 " transform="matrix(1,0,0,-1,145.046,145.046)"/>
<path style="fill:none;stroke-width:0.09962;stroke-linecap:butt;stroke-linejoin:miter;stroke:rgb(0%,0%,0%);stroke-opacity:1;stroke-miterlimit:10;" d="M -10.585062 107.475687 C -17.620219 106.784281 -24.585062 105.397562 -31.350687 103.346781 L -39.710062 130.905375 C -31.143656 133.506937 -22.315531 135.256937 -13.409281 136.135844 Z M -10.585062 107.475687 " transform="matrix(1,0,0,-1,145.046,145.046)"/>
<path style="fill:none;stroke-width:0.09962;stroke-linecap:butt;stroke-linejoin:miter;stroke:rgb(0%,0%,0%);stroke-opacity:1;stroke-miterlimit:10;" d="M -50.909281 95.245219 C -57.143656 91.913187 -63.046 87.963969 -68.510844 83.479594 L -86.780375 105.741312 C -79.8585 111.421 -72.381937 116.421 -64.4835 120.643656 Z M -50.909281 95.245219 " transform="matrix(1,0,0,-1,145.046,145.046)"/>
<path style="fill:none;stroke-width:0.09962;stroke-linecap:butt;stroke-linejoin:miter;stroke:rgb(0%,0%,0%);stroke-opacity:1;stroke-miterlimit:10;" d="M -83.479594 68.510844 C -87.963969 63.046 -91.913187 57.143656 -95.245219 50.909281 L -120.643656 64.4835 C -116.421 72.381937 -111.421 79.8585 -105.741312 86.780375 Z M -83.479594 68.510844 " transform="matrix(1,0,0,-1,145.046,145.046)"/>
<path style="fill:none;stroke-width:0.09962;stroke-linecap:butt;stroke-linejoin:miter;stroke:rgb(0%,0%,0%);stroke-opacity:1;stroke-miterlimit:10;" d="M -103.346781 31.350687 C -105.397562 24.585062 -106.784281 17.620219 -107.475687 10.585062 L -136.135844 13.409281 C -135.256937 22.315531 -133.506937 31.143656 -130.905375 39.710062 Z M -103.346781 31.350687 " transform="matrix(1,0,0,-1,145.046,145.046)"/>
<path style="fill:none;stroke-width:0.09962;stroke-linecap:butt;stroke-linejoin:miter;stroke:rgb(0%,0%,0%);stroke-opacity:1;stroke-miterlimit:10;" d="M -107.475687 -10.586813 C -106.784281 -17.618063 -105.397562 -24.586813 -103.346781 -31.348531 L -130.905375 -39.707906 C -133.506937 -31.1415 -135.256937 -22.317281 -136.135844 -13.407125 Z M -107.475687 -10.586813 " transform="matrix(1,0,0,-1,145.046,145.046)"/>
<path style="fill:none;stroke-width:0.09962;stroke-linecap:butt;stroke-linejoin:miter;stroke:rgb(0%,0%,0%);stroke-opacity:1;stroke-miterlimit:10;" d="M -95.245219 -50.911031 C -91.913187 -57.1415 -87.963969 -63.04775 -83.479594 -68.512594 L -105.741312 -86.782125 C -111.421 -79.86025 -116.421 -72.379781 -120.643656 -64.48525 Z M -95.245219 -50.911031 " transform="matrix(1,0,0,-1,145.046,145.046)"/>
<path style="fill:none;stroke-width:0.09962;stroke-linecap:butt;stroke-linejoin:miter;stroke:rgb(0%,0%,0%);stroke-opacity:1;stroke-miterlimit:10;" d="M -68.510844 -83.481344 C -63.046 -87.965719 -57.143656 -91.911031 -50.909281 -95.243063 L -64.4835 -120.6415 C -72.381937 -116.42275 -79.8585 -111.42275 -86.780375 -105.743063 Z M -68.510844 -83.481344 " transform="matrix(1,0,0,-1,145.046,145.046)"/>
<path style="fill:none;stroke-width:0.09962;stroke-linecap:butt;stroke-linejoin:miter;stroke:rgb(0%,0%,0%);stroke-opacity:1;stroke-miterlimit:10;" d="M -31.350687 -103.348531 C -24.585062 -105.399313 -17.620219 -106.782125 -10.585062 -107.477438 L -13.409281 -136.133688 C -22.315531 -135.258688 -31.143656 -133.504781 -39.710062 -130.907125 Z M -31.350687 -103.348531 " transform="matrix(1,0,0,-1,145.046,145.046)"/>
<path style="fill:none;stroke-width:0.09962;stroke-linecap:butt;stroke-linejoin:miter;stroke:rgb(0%,0%,0%);stroke-opacity:1;stroke-miterlimit:10;" d="M 10.586813 -107.477438 C 17.618063 -106.782125 24.586813 -105.399313 31.348531 -103.348531 L 39.707906 -130.907125 C 31.1415 -133.504781 22.317281 -135.258688 13.407125 -136.133688 Z M 10.586813 -107.477438 " transform="matrix(1,0,0,-1,145.046,145.046)"/>
<path style="fill:none;stroke-width:0.09962;stroke-linecap:butt;stroke-linejoin:miter;stroke:rgb(0%,0%,0%);stroke-opacity:1;stroke-miterlimit:10;" d="M 50.911031 -95.243063 C 57.1415 -91.911031 63.04775 -87.965719 68.512594 -83.481344 L 86.782125 -105.743063 C 79.86025 -111.42275 72.379781 -116.42275 64.48525 -120.6415 Z M 50.911031 -95.243063 " transform="matrix(1,0,0,-1,145.046,145.046)"/>
<path style="fill:none;stroke-width:0.09962;stroke-linecap:butt;stroke-linejoin:miter;stroke:rgb(0%,0%,0%);stroke-opacity:1;stroke-miterlimit:10;" d="M 83.481344 -68.512594 C 87.965719 -63.04775 91.911031 -57.1415 95.243063 -50.911031 L 120.6415 -64.48525 C 116.42275 -72.379781 111.42275 -79.86025 105.743063 -86.782125 Z M 83.481344 -68.512594 " transform="matrix(1,0,0,-1,145.046,145.046)"/>
<path style="fill:none;stroke-width:0.09962;stroke-linecap:butt;stroke-linejoin:miter;stroke:rgb(0%,0%,0%);stroke-opacity:1;stroke-miterlimit:10;" d="M 103.348531 -31.348531 C 105.399313 -24.586813 106.782125 -17.618063 107.477438 -10.586813 L 136.133688 -13.407125 C 135.258688 -22.317281 133.504781 -31.1415 130.907125 -39.707906 Z M 103.348531 -31.348531 " transform="matrix(1,0,0,-1,145.046,145.046)"/>
<path style="fill:none;stroke-width:0.09962;stroke-linecap:butt;stroke-linejoin:miter;stroke:rgb(0%,0%,0%);stroke-opacity:1;stroke-miterlimit:10;" d="M 107.477438 10.585062 C 106.782125 17.620219 105.399313 24.585062 103.348531 31.350687 L 130.907125 39.710062 C 133.504781 31.143656 135.258688 22.315531 136.133688 13.409281 Z M 107.477438 10.585062 " transform="matrix(1,0,0,-1,145.046,145.046)"/>
</g>
</svg>
